<?xml version="1.0" encoding="utf-8"?>
<svg xmlns="http://www.w3.org/2000/svg" xmlns:xlink="http://www.w3.org/1999/xlink" style="margin: auto; background-color: rgb(241, 242, 243); display: block; shape-rendering: auto; background-position: initial initial; background-repeat: initial initial;" width="207px" height="207px" viewBox="0 0 100 100" preserveAspectRatio="xMidYMid">
<g transform="rotate(0 50 50)">
  <rect x="44.5" y="-20" rx="5.5" ry="50" width="11" height="100" fill="#1d0e0b">
    <animate attributeName="opacity" values="1;0" keyTimes="0;1" dur="0.17152658662092624s" begin="-0.15723270440251572s" repeatCount="indefinite"></animate>
  </rect>
</g><g transform="rotate(30 50 50)">
  <rect x="44.5" y="-20" rx="5.5" ry="50" width="11" height="100" fill="#1d0e0b">
    <animate attributeName="opacity" values="1;0" keyTimes="0;1" dur="0.17152658662092624s" begin="-0.1429388221841052s" repeatCount="indefinite"></animate>
  </rect>
</g><g transform="rotate(60 50 50)">
  <rect x="44.5" y="-20" rx="5.5" ry="50" width="11" height="100" fill="#1d0e0b">
    <animate attributeName="opacity" values="1;0" keyTimes="0;1" dur="0.17152658662092624s" begin="-0.12864493996569468s" repeatCount="indefinite"></animate>
  </rect>
</g><g transform="rotate(90 50 50)">
  <rect x="44.5" y="-20" rx="5.5" ry="50" width="11" height="100" fill="#1d0e0b">
    <animate attributeName="opacity" values="1;0" keyTimes="0;1" dur="0.17152658662092624s" begin="-0.11435105774728414s" repeatCount="indefinite"></animate>
  </rect>
</g><g transform="rotate(120 50 50)">
  <rect x="44.5" y="-20" rx="5.5" ry="50" width="11" height="100" fill="#1d0e0b">
    <animate attributeName="opacity" values="1;0" keyTimes="0;1" dur="0.17152658662092624s" begin="-0.10005717552887364s" repeatCount="indefinite"></animate>
  </rect>
</g><g transform="rotate(150 50 50)">
  <rect x="44.5" y="-20" rx="5.5" ry="50" width="11" height="100" fill="#1d0e0b">
    <animate attributeName="opacity" values="1;0" keyTimes="0;1" dur="0.17152658662092624s" begin="-0.08576329331046312s" repeatCount="indefinite"></animate>
  </rect>
</g><g transform="rotate(180 50 50)">
  <rect x="44.5" y="-20" rx="5.5" ry="50" width="11" height="100" fill="#1d0e0b">
    <animate attributeName="opacity" values="1;0" keyTimes="0;1" dur="0.17152658662092624s" begin="-0.0714694110920526s" repeatCount="indefinite"></animate>
  </rect>
</g><g transform="rotate(210 50 50)">
  <rect x="44.5" y="-20" rx="5.5" ry="50" width="11" height="100" fill="#1d0e0b">
    <animate attributeName="opacity" values="1;0" keyTimes="0;1" dur="0.17152658662092624s" begin="-0.05717552887364207s" repeatCount="indefinite"></animate>
  </rect>
</g><g transform="rotate(240 50 50)">
  <rect x="44.5" y="-20" rx="5.5" ry="50" width="11" height="100" fill="#1d0e0b">
    <animate attributeName="opacity" values="1;0" keyTimes="0;1" dur="0.17152658662092624s" begin="-0.04288164665523156s" repeatCount="indefinite"></animate>
  </rect>
</g><g transform="rotate(270 50 50)">
  <rect x="44.5" y="-20" rx="5.5" ry="50" width="11" height="100" fill="#1d0e0b">
    <animate attributeName="opacity" values="1;0" keyTimes="0;1" dur="0.17152658662092624s" begin="-0.028587764436821036s" repeatCount="indefinite"></animate>
  </rect>
</g><g transform="rotate(300 50 50)">
  <rect x="44.5" y="-20" rx="5.5" ry="50" width="11" height="100" fill="#1d0e0b">
    <animate attributeName="opacity" values="1;0" keyTimes="0;1" dur="0.17152658662092624s" begin="-0.014293882218410518s" repeatCount="indefinite"></animate>
  </rect>
</g><g transform="rotate(330 50 50)">
  <rect x="44.5" y="-20" rx="5.5" ry="50" width="11" height="100" fill="#1d0e0b">
    <animate attributeName="opacity" values="1;0" keyTimes="0;1" dur="0.17152658662092624s" begin="0s" repeatCount="indefinite"></animate>
  </rect>
</g>
<!-- [ldio] generated by https://loading.io/ --></svg>